<?xml version="1.0" encoding="UTF-8" standalone="no"?>
<!-- Created with Inkscape (http://www.inkscape.org/) -->

<svg
   width="32"
   height="32"
   viewBox="0 0 8.4666665 8.4666666"
   version="1.1"
   id="svg1"
   inkscape:version="1.3 (0e150ed6c4, 2023-07-21)"
   sodipodi:docname="overcast.svg"
   inkscape:export-filename="cloud.png"
   inkscape:export-xdpi="384"
   inkscape:export-ydpi="384"
   xmlns:inkscape="http://www.inkscape.org/namespaces/inkscape"
   xmlns:sodipodi="http://sodipodi.sourceforge.net/DTD/sodipodi-0.dtd"
   xmlns:xlink="http://www.w3.org/1999/xlink"
   xmlns="http://www.w3.org/2000/svg"
   xmlns:svg="http://www.w3.org/2000/svg">
  <sodipodi:namedview
     id="namedview1"
     pagecolor="#ffffff"
     bordercolor="#eeeeee"
     borderopacity="1"
     inkscape:showpageshadow="0"
     inkscape:pageopacity="0"
     inkscape:pagecheckerboard="0"
     inkscape:deskcolor="#d1d1d1"
     inkscape:document-units="px"
     showgrid="true"
     inkscape:zoom="5.7941075"
     inkscape:cx="-23.903595"
     inkscape:cy="-0.086294567"
     inkscape:window-width="1920"
     inkscape:window-height="1009"
     inkscape:window-x="-8"
     inkscape:window-y="-8"
     inkscape:window-maximized="1"
     inkscape:current-layer="layer1">
    <inkscape:grid
       id="grid1"
       units="px"
       originx="0"
       originy="0"
       spacingx="0.26458333"
       spacingy="0.26458333"
       empcolor="#0099e5"
       empopacity="0.30196078"
       color="#0099e5"
       opacity="0.14901961"
       empspacing="4"
       dotted="false"
       gridanglex="30"
       gridanglez="30"
       visible="true" />
  </sodipodi:namedview>
  <defs
     id="defs1">
    <linearGradient
       id="linearGradient5"
       inkscape:collect="always">
      <stop
         style="stop-color:#bcbcbc;stop-opacity:1;"
         offset="0"
         id="stop4" />
      <stop
         style="stop-color:#ffffff;stop-opacity:1;"
         offset="1"
         id="stop5" />
    </linearGradient>
    <linearGradient
       id="linearGradient2"
       inkscape:collect="always">
      <stop
         style="stop-color:#b8b8b8;stop-opacity:1;"
         offset="0"
         id="stop2" />
      <stop
         style="stop-color:#ffffff;stop-opacity:1;"
         offset="1"
         id="stop3" />
    </linearGradient>
    <linearGradient
       inkscape:collect="always"
       xlink:href="#linearGradient2"
       id="linearGradient3"
       x1="1.0583333"
       y1="5.2916665"
       x2="7.458333"
       y2="1.4052083"
       gradientUnits="userSpaceOnUse"
       gradientTransform="matrix(1.330617,0,0,1.330617,-1.390988,-2.6039892)" />
    <filter
       style="color-interpolation-filters:sRGB;"
       inkscape:label="Drop Shadow"
       id="filter2"
       x="-0.028404323"
       y="-0.047014055"
       width="1.0568086"
       height="1.0940281">
      <feFlood
         result="flood"
         in="SourceGraphic"
         flood-opacity="0.196078"
         flood-color="rgb(0,0,0)"
         id="feFlood1" />
      <feGaussianBlur
         result="blur"
         in="SourceGraphic"
         stdDeviation="0.100000"
         id="feGaussianBlur1" />
      <feOffset
         result="offset"
         in="blur"
         dx="0.000000"
         dy="0.000000"
         id="feOffset1" />
      <feComposite
         result="comp1"
         operator="in"
         in="flood"
         in2="offset"
         id="feComposite1" />
      <feComposite
         result="comp2"
         operator="over"
         in="SourceGraphic"
         in2="comp1"
         id="feComposite2" />
    </filter>
    <linearGradient
       inkscape:collect="always"
       xlink:href="#linearGradient5"
       id="linearGradient4"
       gradientUnits="userSpaceOnUse"
       gradientTransform="matrix(1.330617,0,0,1.330617,-0.07669551,-1.6598831)"
       x1="1.0583333"
       y1="5.2916665"
       x2="7.458333"
       y2="1.4052083" />
    <filter
       style="color-interpolation-filters:sRGB;"
       inkscape:label="Drop Shadow"
       id="filter11"
       x="-0.085212972"
       y="-0.14104217"
       width="1.1704259"
       height="1.2820843">
      <feFlood
         result="flood"
         in="SourceGraphic"
         flood-opacity="0.196078"
         flood-color="rgb(0,0,0)"
         id="feFlood10" />
      <feGaussianBlur
         result="blur"
         in="SourceGraphic"
         stdDeviation="0.300000"
         id="feGaussianBlur10" />
      <feOffset
         result="offset"
         in="blur"
         dx="0.000000"
         dy="0.000000"
         id="feOffset10" />
      <feComposite
         result="comp1"
         operator="in"
         in="flood"
         in2="offset"
         id="feComposite10" />
      <feComposite
         result="comp2"
         operator="over"
         in="SourceGraphic"
         in2="comp1"
         id="feComposite11" />
    </filter>
  </defs>
  <g
     inkscape:label="Layer 1"
     inkscape:groupmode="layer"
     id="layer1">
    <path
       id="path1"
       style="fill:url(#linearGradient3);fill-opacity:1;stroke:none;stroke-width:0.133062;stroke-linecap:round;stroke-linejoin:round;stroke-dasharray:none;stroke-opacity:1;filter:url(#filter2)"
       d="m 3.0097503,0.0364537 a 1.936325,1.936325 0 0 0 -1.9363248,1.9363248 1.936325,1.936325 0 0 0 0.044695,0.3912531 c -0.41426102,0.089296 -1.10087229,0.3850257 -1.10087229,1.3690423 0,0 1.47e-6,1.4082363 1.40823629,1.4082363 H 7.05843 c 0,0 1.4082363,-1.5e-6 1.4082363,-1.4082363 0,0 -1.034e-4,-1.1636833 -1.0582401,-1.3752309 A 1.4082363,1.4082363 0 0 0 7.4104887,2.3248376 1.4082363,1.4082363 0 0 0 6.0022525,0.91660133 1.4082363,1.4082363 0 0 0 4.8814395,1.4776954 1.936325,1.936325 0 0 0 3.0097503,0.0364537 Z" />
    <path
       id="path2"
       style="fill:url(#linearGradient4);fill-opacity:1;stroke:none;stroke-width:0.133062;stroke-linecap:round;stroke-linejoin:round;stroke-dasharray:none;stroke-opacity:1;filter:url(#filter11)"
       d="M 4.3240428,0.98055981 A 1.936325,1.936325 0 0 0 2.387718,2.9168846 1.936325,1.936325 0 0 0 2.432413,3.3081377 C 2.018152,3.3974337 1.3315407,3.6931634 1.3315407,4.67718 c 0,0 1.5e-6,1.4082363 1.4082363,1.4082363 h 5.6329455 c 0,0 1.4082363,-1.5e-6 1.4082363,-1.4082363 0,0 -1.034e-4,-1.1636833 -1.0582401,-1.3752309 A 1.4082363,1.4082363 0 0 0 8.7247812,3.2689437 1.4082363,1.4082363 0 0 0 7.316545,1.8607074 1.4082363,1.4082363 0 0 0 6.195732,2.4218015 1.936325,1.936325 0 0 0 4.3240428,0.98055981 Z"
       transform="matrix(0.59261051,0,0,0.59261051,2.528141,2.3369081)" />
  </g>
</svg>
