<?xml version="1.0" encoding="UTF-8" standalone="no"?>
<!-- Created with Inkscape (http://www.inkscape.org/) -->

<svg
   width="32"
   height="32"
   viewBox="0 0 8.4666665 8.4666666"
   version="1.1"
   id="svg1"
   inkscape:version="1.3 (0e150ed6c4, 2023-07-21)"
   sodipodi:docname="snow_3.svg"
   inkscape:export-filename="cloud.png"
   inkscape:export-xdpi="384"
   inkscape:export-ydpi="384"
   xmlns:inkscape="http://www.inkscape.org/namespaces/inkscape"
   xmlns:sodipodi="http://sodipodi.sourceforge.net/DTD/sodipodi-0.dtd"
   xmlns:xlink="http://www.w3.org/1999/xlink"
   xmlns="http://www.w3.org/2000/svg"
   xmlns:svg="http://www.w3.org/2000/svg">
  <sodipodi:namedview
     id="namedview1"
     pagecolor="#ffffff"
     bordercolor="#eeeeee"
     borderopacity="1"
     inkscape:showpageshadow="0"
     inkscape:pageopacity="0"
     inkscape:pagecheckerboard="0"
     inkscape:deskcolor="#d1d1d1"
     inkscape:document-units="px"
     showgrid="true"
     inkscape:zoom="16.388211"
     inkscape:cx="10.037703"
     inkscape:cy="16.627806"
     inkscape:window-width="1920"
     inkscape:window-height="1009"
     inkscape:window-x="-8"
     inkscape:window-y="-8"
     inkscape:window-maximized="1"
     inkscape:current-layer="layer1">
    <inkscape:grid
       id="grid1"
       units="px"
       originx="0"
       originy="0"
       spacingx="0.26458333"
       spacingy="0.26458333"
       empcolor="#0099e5"
       empopacity="0.30196078"
       color="#0099e5"
       opacity="0.14901961"
       empspacing="4"
       dotted="false"
       gridanglex="30"
       gridanglez="30"
       visible="true" />
  </sodipodi:namedview>
  <defs
     id="defs1">
    <linearGradient
       id="linearGradient2"
       inkscape:collect="always">
      <stop
         style="stop-color:#c4c4c4;stop-opacity:1;"
         offset="0"
         id="stop2" />
      <stop
         style="stop-color:#ffffff;stop-opacity:1;"
         offset="1"
         id="stop3" />
    </linearGradient>
    <linearGradient
       inkscape:collect="always"
       xlink:href="#linearGradient2"
       id="linearGradient3"
       x1="1.0583333"
       y1="5.2916665"
       x2="7.458333"
       y2="1.4052083"
       gradientUnits="userSpaceOnUse"
       gradientTransform="matrix(1.3297117,0,0,1.3297117,-1.3871556,-2.6004561)" />
    <filter
       style="color-interpolation-filters:sRGB;"
       inkscape:label="Drop Shadow"
       id="filter2"
       x="-0.028423663"
       y="-0.047046063"
       width="1.0568473"
       height="1.0940921">
      <feFlood
         result="flood"
         in="SourceGraphic"
         flood-opacity="0.301961"
         flood-color="rgb(0,0,0)"
         id="feFlood1" />
      <feGaussianBlur
         result="blur"
         in="SourceGraphic"
         stdDeviation="0.100000"
         id="feGaussianBlur1" />
      <feOffset
         result="offset"
         in="blur"
         dx="0.000000"
         dy="0.000000"
         id="feOffset1" />
      <feComposite
         result="comp1"
         operator="in"
         in="flood"
         in2="offset"
         id="feComposite1" />
      <feComposite
         result="comp2"
         operator="over"
         in="SourceGraphic"
         in2="comp1"
         id="feComposite2" />
    </filter>
  </defs>
  <g
     inkscape:label="Layer 1"
     inkscape:groupmode="layer"
     id="layer1">
    <path
       id="path1"
       style="fill:url(#linearGradient3);fill-opacity:1;stroke:none;stroke-width:0.132972;stroke-linecap:round;stroke-linejoin:round;stroke-dasharray:none;stroke-opacity:1;filter:url(#filter2)"
       d="m 3.0105887,0.03819026 a 1.9350076,1.9350076 0 0 0 -1.9350075,1.93500734 1.9350076,1.9350076 0 0 0 0.044665,0.390987 c -0.41397915,0.089236 -1.10012327,0.3847638 -1.10012327,1.3681109 0,0 1.46e-6,1.4072781 1.40727817,1.4072781 h 5.6291128 c 0,0 1.4072782,-1.5e-6 1.4072782,-1.4072781 0,0 -1.034e-4,-1.1628917 -1.0575201,-1.3742953 A 1.4072782,1.4072782 0 0 0 7.408333,2.3250172 1.4072782,1.4072782 0 0 0 6.0010548,0.91773908 1.4072782,1.4072782 0 0 0 4.8810044,1.4784514 1.9350076,1.9350076 0 0 0 3.0105887,0.03819026 Z" />
    <g
       id="g36"
       transform="translate(-1.1906051)"
       style="fill:#cccccc">
      <path
         id="rect9"
         style="fill:#cccccc;fill-opacity:1;stroke-width:0.241829;stroke-linecap:round;stroke-linejoin:round"
         d="M 3.5056524,5.5477577 C 3.4421819,5.5111129 3.3615836,5.5327089 3.3249386,5.5961798 L 3.0427853,6.0848836 2.7604976,5.5961022 C 2.7238528,5.5326315 2.6430448,5.5110914 2.5795738,5.5477364 2.5161033,5.5843811 2.4945631,5.6651892 2.531208,5.7286602 l 0.2822877,0.4887814 -0.564441,-7.76e-5 c -0.07329,1e-7 -0.1325017,0.059058 -0.1325017,0.132348 0,0.07329 0.059058,0.1325017 0.132348,0.1325016 l 0.564441,7.76e-5 -0.2821534,0.4887039 c -0.036645,0.063471 -0.015049,0.1440688 0.048422,0.1807137 0.063471,0.036645 0.1440688,0.015049 0.1807137,-0.048422 L 3.0424779,6.6145829 3.3247656,7.1033643 c 0.036645,0.063471 0.1174528,0.085011 0.1809237,0.048366 0.063471,-0.036645 0.08501,-0.1174537 0.048366,-0.1809238 L 3.2717675,6.482025 l 0.5644411,7.77e-5 c 0.073289,-1e-7 0.1325017,-0.059058 0.1325016,-0.132348 0,-0.07329 -0.059058,-0.1325017 -0.1323479,-0.1325017 L 3.2719212,6.2171753 3.5540745,5.7284715 c 0.036645,-0.063471 0.015049,-0.1440689 -0.048422,-0.1807138 z" />
      <path
         id="path12"
         style="fill:#cccccc;fill-opacity:1;stroke-width:0.241829;stroke-linecap:round;stroke-linejoin:round"
         d="M 5.8870558,5.5477577 C 5.8235853,5.5111129 5.742987,5.5327089 5.706342,5.5961798 L 5.4241887,6.0848836 5.141901,5.5961022 C 5.1052562,5.5326315 5.0244482,5.5110914 4.9609772,5.5477364 4.8975067,5.5843811 4.8759665,5.6651892 4.9126114,5.7286602 l 0.2822877,0.4887814 -0.564441,-7.76e-5 c -0.07329,1e-7 -0.1325017,0.059058 -0.1325017,0.132348 0,0.07329 0.059058,0.1325017 0.132348,0.1325016 l 0.564441,7.76e-5 -0.2821534,0.4887039 c -0.036645,0.063471 -0.015049,0.1440688 0.048422,0.1807137 0.063471,0.036645 0.1440688,0.015049 0.1807137,-0.048422 L 5.4238813,6.6145829 5.706169,7.1033643 c 0.036645,0.063471 0.1174528,0.085011 0.1809237,0.048366 0.063471,-0.036645 0.08501,-0.1174537 0.048366,-0.1809238 L 5.6531709,6.482025 6.217612,6.4821027 c 0.073289,-1e-7 0.1325017,-0.059058 0.1325016,-0.132348 0,-0.07329 -0.059058,-0.1325017 -0.1323479,-0.1325017 L 5.6533246,6.2171753 5.9354779,5.7284715 c 0.036645,-0.063471 0.015049,-0.1440689 -0.048422,-0.1807138 z" />
      <path
         id="path36"
         style="fill:#cccccc;fill-opacity:1;stroke-width:0.241829;stroke-linecap:round;stroke-linejoin:round"
         d="M 8.2682659,5.5480455 C 8.2047954,5.5114007 8.1241971,5.5329967 8.0875521,5.5964676 L 7.8053988,6.0851714 7.5231111,5.59639 C 7.4864661,5.532919 7.4056583,5.511379 7.3421873,5.548024 7.2787173,5.584669 7.2571763,5.6654768 7.2938213,5.7289478 L 7.576109,6.2177292 7.011668,6.2176516 c -0.07329,1e-7 -0.1325017,0.059058 -0.1325017,0.132348 0,0.07329 0.059058,0.1325017 0.132348,0.1325016 l 0.564441,7.76e-5 -0.2821534,0.4887039 c -0.036645,0.063471 -0.015049,0.1440688 0.048422,0.1807137 0.063471,0.036645 0.1440688,0.015049 0.1807137,-0.048422 L 7.8050914,6.6148707 8.0873791,7.1036521 c 0.036645,0.063471 0.1174528,0.085011 0.1809237,0.048366 0.063471,-0.036645 0.08501,-0.1174537 0.048366,-0.1809238 L 8.034381,6.4823128 l 0.5644411,7.77e-5 c 0.073289,-1e-7 0.1325017,-0.059058 0.1325016,-0.132348 0,-0.07329 -0.059058,-0.1325017 -0.1323479,-0.1325017 L 8.0345347,6.2174631 8.316688,5.7287593 C 8.353333,5.6652883 8.331737,5.5846904 8.2682659,5.5480455 Z" />
    </g>
  </g>
</svg>
