<?xml version="1.0" encoding="UTF-8" standalone="no"?>
<!-- Created with Inkscape (http://www.inkscape.org/) -->

<svg
   width="32"
   height="32"
   viewBox="0 0 8.4666665 8.4666666"
   version="1.1"
   id="svg1"
   inkscape:version="1.3 (0e150ed6c4, 2023-07-21)"
   sodipodi:docname="snow_1.svg"
   inkscape:export-filename="cloud.png"
   inkscape:export-xdpi="384"
   inkscape:export-ydpi="384"
   xmlns:inkscape="http://www.inkscape.org/namespaces/inkscape"
   xmlns:sodipodi="http://sodipodi.sourceforge.net/DTD/sodipodi-0.dtd"
   xmlns:xlink="http://www.w3.org/1999/xlink"
   xmlns="http://www.w3.org/2000/svg"
   xmlns:svg="http://www.w3.org/2000/svg">
  <sodipodi:namedview
     id="namedview1"
     pagecolor="#3d3d3d"
     bordercolor="#eeeeee"
     borderopacity="1"
     inkscape:showpageshadow="0"
     inkscape:pageopacity="0"
     inkscape:pagecheckerboard="0"
     inkscape:deskcolor="#d1d1d1"
     inkscape:document-units="px"
     showgrid="true"
     inkscape:zoom="16.388211"
     inkscape:cx="11.807268"
     inkscape:cy="10.525859"
     inkscape:window-width="1920"
     inkscape:window-height="1009"
     inkscape:window-x="-8"
     inkscape:window-y="-8"
     inkscape:window-maximized="1"
     inkscape:current-layer="layer1">
    <inkscape:grid
       id="grid1"
       units="px"
       originx="0"
       originy="0"
       spacingx="0.26458333"
       spacingy="0.26458333"
       empcolor="#0099e5"
       empopacity="0.30196078"
       color="#0099e5"
       opacity="0.14901961"
       empspacing="4"
       dotted="false"
       gridanglex="30"
       gridanglez="30"
       visible="true" />
  </sodipodi:namedview>
  <defs
     id="defs1">
    <linearGradient
       id="linearGradient2"
       inkscape:collect="always">
      <stop
         style="stop-color:#c4c4c4;stop-opacity:1;"
         offset="0"
         id="stop2" />
      <stop
         style="stop-color:#ffffff;stop-opacity:1;"
         offset="1"
         id="stop3" />
    </linearGradient>
    <linearGradient
       inkscape:collect="always"
       xlink:href="#linearGradient2"
       id="linearGradient3"
       x1="1.0583333"
       y1="5.2916665"
       x2="7.458333"
       y2="1.4052083"
       gradientUnits="userSpaceOnUse"
       gradientTransform="matrix(1.3306172,0,0,1.3306172,-1.3909884,-2.6039896)" />
    <filter
       style="color-interpolation-filters:sRGB;"
       inkscape:label="Drop Shadow"
       id="filter2"
       x="-0.028404322"
       y="-0.047014051"
       width="1.0568086"
       height="1.0940281">
      <feFlood
         result="flood"
         in="SourceGraphic"
         flood-opacity="0.301961"
         flood-color="rgb(0,0,0)"
         id="feFlood1" />
      <feGaussianBlur
         result="blur"
         in="SourceGraphic"
         stdDeviation="0.100000"
         id="feGaussianBlur1" />
      <feOffset
         result="offset"
         in="blur"
         dx="0.000000"
         dy="0.000000"
         id="feOffset1" />
      <feComposite
         result="comp1"
         operator="in"
         in="flood"
         in2="offset"
         id="feComposite1" />
      <feComposite
         result="comp2"
         operator="over"
         in="SourceGraphic"
         in2="comp1"
         id="feComposite2" />
    </filter>
  </defs>
  <g
     inkscape:label="Layer 1"
     inkscape:groupmode="layer"
     id="layer1">
    <path
       id="path1"
       style="fill:url(#linearGradient3);fill-opacity:1;stroke:none;stroke-width:0.133062;stroke-linecap:round;stroke-linejoin:round;stroke-dasharray:none;stroke-opacity:1;filter:url(#filter2)"
       d="M 3.0097503,0.03645353 A 1.9363251,1.9363251 0 0 0 1.0734253,1.9727784 1.9363251,1.9363251 0 0 0 1.1181206,2.3640316 C 0.70385955,2.4533281 0.01724823,2.7490573 0.01724823,3.733074 c 0,0 1.47e-6,1.4082364 1.40823637,1.4082364 h 5.6329456 c 0,0 1.4082364,-1.5e-6 1.4082364,-1.4082364 0,0 -1.034e-4,-1.1636834 -1.0582402,-1.375231 A 1.4082363,1.4082363 0 0 0 7.4104889,2.3248376 1.4082363,1.4082363 0 0 0 6.0022526,0.91660122 1.4082363,1.4082363 0 0 0 4.8814396,1.4776953 1.9363251,1.9363251 0 0 0 3.0097503,0.03645353 Z" />
    <path
       id="rect9"
       style="fill:#cccccc;fill-opacity:1;stroke-width:0.241829;stroke-linecap:round;stroke-linejoin:round"
       d="M 4.6963541,5.5477577 C 4.6328836,5.5111129 4.5522853,5.5327089 4.5156403,5.5961798 L 4.233487,6.0848836 3.9511993,5.5961022 C 3.9145545,5.5326315 3.8337465,5.5110914 3.7702755,5.5477364 3.706805,5.5843811 3.6852648,5.6651892 3.7219097,5.7286602 l 0.2822877,0.4887814 -0.564441,-7.76e-5 c -0.07329,1e-7 -0.1325017,0.059058 -0.1325017,0.132348 0,0.07329 0.059058,0.1325017 0.132348,0.1325016 l 0.564441,7.76e-5 -0.2821534,0.4887039 c -0.036645,0.063471 -0.015049,0.1440688 0.048422,0.1807137 0.063471,0.036645 0.1440688,0.015049 0.1807137,-0.048422 L 4.2331796,6.6145829 4.5154673,7.1033643 c 0.036645,0.063471 0.1174528,0.085011 0.1809237,0.048366 0.063471,-0.036645 0.08501,-0.1174537 0.048366,-0.1809238 L 4.4624692,6.482025 l 0.5644411,7.77e-5 c 0.073289,-1e-7 0.1325017,-0.059058 0.1325016,-0.132348 0,-0.07329 -0.059058,-0.1325017 -0.1323479,-0.1325017 L 4.4626229,6.2171753 4.7447762,5.7284715 c 0.036645,-0.063471 0.015049,-0.1440689 -0.048422,-0.1807138 z" />
  </g>
</svg>
