<?xml version="1.0" encoding="UTF-8" standalone="no"?>
<!-- Created with Inkscape (http://www.inkscape.org/) -->

<svg
   width="32"
   height="32"
   viewBox="0 0 8.4666665 8.4666666"
   version="1.1"
   id="svg1"
   inkscape:version="1.3 (0e150ed6c4, 2023-07-21)"
   sodipodi:docname="drizzle_2.svg"
   inkscape:export-filename="cloud.png"
   inkscape:export-xdpi="384"
   inkscape:export-ydpi="384"
   xmlns:inkscape="http://www.inkscape.org/namespaces/inkscape"
   xmlns:sodipodi="http://sodipodi.sourceforge.net/DTD/sodipodi-0.dtd"
   xmlns:xlink="http://www.w3.org/1999/xlink"
   xmlns="http://www.w3.org/2000/svg"
   xmlns:svg="http://www.w3.org/2000/svg">
  <sodipodi:namedview
     id="namedview1"
     pagecolor="#ffffff"
     bordercolor="#eeeeee"
     borderopacity="1"
     inkscape:showpageshadow="0"
     inkscape:pageopacity="0"
     inkscape:pagecheckerboard="0"
     inkscape:deskcolor="#d1d1d1"
     inkscape:document-units="px"
     showgrid="true"
     inkscape:zoom="16.388211"
     inkscape:cx="14.431105"
     inkscape:cy="12.051346"
     inkscape:window-width="1920"
     inkscape:window-height="1009"
     inkscape:window-x="-8"
     inkscape:window-y="-8"
     inkscape:window-maximized="1"
     inkscape:current-layer="layer1">
    <inkscape:grid
       id="grid1"
       units="px"
       originx="0"
       originy="0"
       spacingx="0.26458333"
       spacingy="0.26458333"
       empcolor="#0099e5"
       empopacity="0.30196078"
       color="#0099e5"
       opacity="0.14901961"
       empspacing="4"
       dotted="false"
       gridanglex="30"
       gridanglez="30"
       visible="true" />
  </sodipodi:namedview>
  <defs
     id="defs1">
    <linearGradient
       id="linearGradient2"
       inkscape:collect="always">
      <stop
         style="stop-color:#c4c4c4;stop-opacity:1;"
         offset="0"
         id="stop2" />
      <stop
         style="stop-color:#ffffff;stop-opacity:1;"
         offset="1"
         id="stop3" />
    </linearGradient>
    <linearGradient
       inkscape:collect="always"
       xlink:href="#linearGradient2"
       id="linearGradient3"
       x1="1.0583333"
       y1="5.2916665"
       x2="7.458333"
       y2="1.4052083"
       gradientUnits="userSpaceOnUse"
       gradientTransform="matrix(1.330617,0,0,1.330617,-1.3909881,-2.6039893)" />
    <filter
       style="color-interpolation-filters:sRGB;"
       inkscape:label="Drop Shadow"
       id="filter2"
       x="-0.028404323"
       y="-0.047014053"
       width="1.0568086"
       height="1.0940281">
      <feFlood
         result="flood"
         in="SourceGraphic"
         flood-opacity="0.301961"
         flood-color="rgb(0,0,0)"
         id="feFlood1" />
      <feGaussianBlur
         result="blur"
         in="SourceGraphic"
         stdDeviation="0.100000"
         id="feGaussianBlur1" />
      <feOffset
         result="offset"
         in="blur"
         dx="0.000000"
         dy="0.000000"
         id="feOffset1" />
      <feComposite
         result="comp1"
         operator="in"
         in="flood"
         in2="offset"
         id="feComposite1" />
      <feComposite
         result="comp2"
         operator="over"
         in="SourceGraphic"
         in2="comp1"
         id="feComposite2" />
    </filter>
  </defs>
  <g
     inkscape:label="Layer 1"
     inkscape:groupmode="layer"
     id="layer1">
    <path
       id="path1"
       style="fill:url(#linearGradient3);fill-opacity:1;stroke:none;stroke-width:0.133062;stroke-linecap:round;stroke-linejoin:round;stroke-dasharray:none;stroke-opacity:1;filter:url(#filter2)"
       d="M 3.0097504,0.03645359 A 1.9363251,1.9363251 0 0 0 1.0734254,1.9727784 1.9363251,1.9363251 0 0 0 1.1181207,2.3640316 C 0.70385963,2.4533281 0.01724833,2.7490573 0.01724833,3.733074 c 0,0 1.47e-6,1.4082363 1.40823647,1.4082363 h 5.6329454 c 0,0 1.4082363,-1.5e-6 1.4082363,-1.4082363 0,0 -1.033e-4,-1.1636834 -1.05824,-1.375231 A 1.4082363,1.4082363 0 0 0 7.410489,2.3248376 1.4082363,1.4082363 0 0 0 6.0022526,0.91660124 1.4082363,1.4082363 0 0 0 4.8814396,1.4776954 1.9363251,1.9363251 0 0 0 3.0097504,0.03645359 Z" />
    <g
       id="g4"
       transform="translate(-0.06608105)"
       style="fill:#20a5ff;fill-opacity:1">
      <path
         style="fill:#20a5ff;fill-opacity:1;stroke:none;stroke-width:0.1;stroke-linecap:round;stroke-linejoin:round"
         d="m 2.6009589,5.5428859 c -0.046895,-0.00127 -0.092629,0.023026 -0.1178227,0.066663 L 2.0858361,6.2967012 c -0.036645,0.063471 -0.014895,0.1442228 0.048576,0.1808676 0.063471,0.036645 0.1442228,0.014895 0.1808674,-0.048576 L 2.7120628,5.7418399 c 0.036644,-0.06347 0.014895,-0.1442228 -0.048576,-0.1808677 -0.019834,-0.011451 -0.041212,-0.017512 -0.062528,-0.018086 z"
         id="path3"
         sodipodi:nodetypes="cccsccsc" />
      <path
         style="fill:#20a5ff;fill-opacity:1;stroke:none;stroke-width:0.1;stroke-linecap:round;stroke-linejoin:round"
         d="m 6.4018891,5.9397605 c -0.046895,-0.00127 -0.092629,0.023026 -0.1178226,0.066663 L 5.8867663,6.6935758 c -0.036645,0.063471 -0.014895,0.1442228 0.048576,0.1808676 0.063471,0.036645 0.1442227,0.014895 0.1808673,-0.048576 L 6.512993,6.1387145 C 6.549637,6.0752445 6.527888,5.9944917 6.464417,5.9578468 6.444583,5.9463958 6.4232051,5.9403348 6.4018891,5.9397605 Z"
         id="path2"
         sodipodi:nodetypes="cccsccsc" />
      <path
         style="fill:#20a5ff;fill-opacity:1;stroke:none;stroke-width:0.1;stroke-linecap:round;stroke-linejoin:round"
         d="m 4.2852225,6.7335104 c -0.046895,-0.00127 -0.092629,0.023026 -0.1178226,0.066663 L 3.7700997,7.4873257 c -0.036645,0.063471 -0.014895,0.1442228 0.048576,0.1808676 0.063471,0.036645 0.1442227,0.014895 0.1808673,-0.048576 L 4.3963264,6.9324644 c 0.036644,-0.06347 0.014895,-0.1442228 -0.048576,-0.1808677 -0.019834,-0.011451 -0.041212,-0.017512 -0.062528,-0.018086 z"
         id="path4"
         sodipodi:nodetypes="cccsccsc" />
    </g>
  </g>
</svg>
