<?xml version="1.0" encoding="UTF-8" standalone="no"?>
<!-- Created with Inkscape (http://www.inkscape.org/) -->

<svg
   width="32"
   height="32"
   viewBox="0 0 8.4666665 8.4666666"
   version="1.1"
   id="svg1"
   inkscape:version="1.3 (0e150ed6c4, 2023-07-21)"
   sodipodi:docname="freezing_rain_2.svg"
   inkscape:export-filename="cloud.png"
   inkscape:export-xdpi="384"
   inkscape:export-ydpi="384"
   xml:space="preserve"
   xmlns:inkscape="http://www.inkscape.org/namespaces/inkscape"
   xmlns:sodipodi="http://sodipodi.sourceforge.net/DTD/sodipodi-0.dtd"
   xmlns:xlink="http://www.w3.org/1999/xlink"
   xmlns="http://www.w3.org/2000/svg"
   xmlns:svg="http://www.w3.org/2000/svg"><sodipodi:namedview
     id="namedview1"
     pagecolor="#ffffff"
     bordercolor="#eeeeee"
     borderopacity="1"
     inkscape:showpageshadow="0"
     inkscape:pageopacity="0"
     inkscape:pagecheckerboard="0"
     inkscape:deskcolor="#d1d1d1"
     inkscape:document-units="px"
     showgrid="true"
     inkscape:zoom="45.254834"
     inkscape:cx="11.700408"
     inkscape:cy="27.411436"
     inkscape:window-width="1920"
     inkscape:window-height="1009"
     inkscape:window-x="-8"
     inkscape:window-y="-8"
     inkscape:window-maximized="1"
     inkscape:current-layer="layer1"
     showguides="false"><inkscape:grid
       id="grid1"
       units="px"
       originx="0"
       originy="0"
       spacingx="0.26458333"
       spacingy="0.26458333"
       empcolor="#0099e5"
       empopacity="0.30196078"
       color="#0099e5"
       opacity="0.14901961"
       empspacing="4"
       dotted="false"
       gridanglex="30"
       gridanglez="30"
       visible="true" /><sodipodi:guide
       position="-7.6729163,1.8520836"
       orientation="1,0"
       id="guide5"
       inkscape:locked="false" /></sodipodi:namedview><defs
     id="defs1"><linearGradient
       id="linearGradient4"
       inkscape:collect="always"><stop
         style="stop-color:#0098ff;stop-opacity:1;"
         offset="0"
         id="stop4" /><stop
         style="stop-color:#aadcff;stop-opacity:1;"
         offset="1"
         id="stop7" /></linearGradient><linearGradient
       id="linearGradient2"
       inkscape:collect="always"><stop
         style="stop-color:#c4c4c4;stop-opacity:1;"
         offset="0"
         id="stop2" /><stop
         style="stop-color:#ffffff;stop-opacity:1;"
         offset="1"
         id="stop3" /></linearGradient><linearGradient
       inkscape:collect="always"
       xlink:href="#linearGradient2"
       id="linearGradient3"
       x1="1.0583333"
       y1="5.2916665"
       x2="7.458333"
       y2="1.4052083"
       gradientUnits="userSpaceOnUse"
       gradientTransform="matrix(1.3306172,0,0,1.3306172,-1.3909884,-2.6039896)" /><linearGradient
       inkscape:collect="always"
       xlink:href="#linearGradient4"
       id="linearGradient7"
       x1="4.7624998"
       y1="6.8791661"
       x2="3.7041664"
       y2="5.2916665"
       gradientUnits="userSpaceOnUse"
       gradientTransform="translate(-2.5e-8,1.3229166)" /><filter
       style="color-interpolation-filters:sRGB;"
       inkscape:label="Drop Shadow"
       id="filter2"
       x="-0.028404322"
       y="-0.047014051"
       width="1.0568086"
       height="1.0940281"><feFlood
         result="flood"
         in="SourceGraphic"
         flood-opacity="0.301961"
         flood-color="rgb(0,0,0)"
         id="feFlood1" /><feGaussianBlur
         result="blur"
         in="SourceGraphic"
         stdDeviation="0.100000"
         id="feGaussianBlur1" /><feOffset
         result="offset"
         in="blur"
         dx="0.000000"
         dy="0.000000"
         id="feOffset1" /><feComposite
         result="comp1"
         operator="in"
         in="flood"
         in2="offset"
         id="feComposite1" /><feComposite
         result="comp2"
         operator="over"
         in="SourceGraphic"
         in2="comp1"
         id="feComposite2" /></filter><linearGradient
       inkscape:collect="always"
       xlink:href="#linearGradient4"
       id="linearGradient5"
       gradientUnits="userSpaceOnUse"
       gradientTransform="translate(2.1166665,0.26458335)"
       x1="4.7624998"
       y1="6.8791661"
       x2="3.7041664"
       y2="5.2916665" /></defs><g
     inkscape:label="Layer 1"
     inkscape:groupmode="layer"
     id="layer1"><path
       id="path1"
       style="fill:url(#linearGradient3);fill-opacity:1;stroke:none;stroke-width:0.133062;stroke-linecap:round;stroke-linejoin:round;stroke-dasharray:none;stroke-opacity:1;filter:url(#filter2)"
       d="M 3.0097503,0.03645353 A 1.9363251,1.9363251 0 0 0 1.0734253,1.9727784 1.9363251,1.9363251 0 0 0 1.1181206,2.3640316 C 0.70385955,2.4533281 0.01724823,2.7490573 0.01724823,3.733074 c 0,0 1.47e-6,1.4082364 1.40823637,1.4082364 h 5.6329456 c 0,0 1.4082364,-1.5e-6 1.4082364,-1.4082364 0,0 -1.034e-4,-1.1636834 -1.0582402,-1.375231 A 1.4082363,1.4082363 0 0 0 7.4104889,2.3248376 1.4082363,1.4082363 0 0 0 6.0022526,0.91660122 1.4082363,1.4082363 0 0 0 4.8814396,1.4776953 1.9363251,1.9363251 0 0 0 3.0097503,0.03645353 Z" /><path
       id="path2"
       style="fill:url(#linearGradient7);fill-opacity:1;stroke:none;stroke-width:0.241829;stroke-linecap:round;stroke-linejoin:round"
       d="m 4.2333333,6.6145832 c 0,0 -0.5291666,0.529167 -0.5291666,1.058333 0,0.529166 0.5291666,0.5291666 0.5291666,0.5291666 0,0 0.5291665,-6e-7 0.5291665,-0.5291666 0,-0.529166 -0.5291665,-1.058333 -0.5291665,-1.058333 z" /><path
       id="rect9"
       style="fill:#cccccc;fill-opacity:1;stroke-width:0.241829;stroke-linecap:round;stroke-linejoin:round"
       d="M 2.7384878,5.3957672 C 2.6750173,5.3591224 2.594419,5.3807185 2.557774,5.4441893 L 2.2756207,5.9328932 1.993333,5.4441117 C 1.956688,5.3806407 1.8758802,5.3591007 1.8124092,5.3957457 c -0.06347,0.036645 -0.085011,0.1174529 -0.048366,0.1809239 l 0.2822877,0.4887813 -0.564441,-7.76e-5 c -0.07329,2e-7 -0.1325017,0.059058 -0.1325017,0.1323481 0,0.07329 0.059058,0.1325016 0.132348,0.1325016 l 0.564441,7.76e-5 -0.2821532,0.4887041 c -0.036645,0.063471 -0.015049,0.1440688 0.048422,0.1807137 0.063471,0.036645 0.1440688,0.015049 0.1807137,-0.048422 L 2.2753133,6.4625925 2.557601,6.9513738 c 0.036645,0.063471 0.1174528,0.085011 0.1809237,0.048366 0.063471,-0.036645 0.08501,-0.1174537 0.048366,-0.1809238 L 2.5046029,6.3300345 3.069044,6.3301123 c 0.073289,-2e-7 0.1325017,-0.059058 0.1325016,-0.1323481 0,-0.07329 -0.059058,-0.1325016 -0.1323479,-0.1325016 L 2.5047566,6.0651848 2.7869099,5.5764811 c 0.036645,-0.063471 0.015049,-0.1440689 -0.048422,-0.1807139 z" /><path
       id="path5"
       style="fill:url(#linearGradient5);fill-opacity:1;stroke:none;stroke-width:0.241829;stroke-linecap:round;stroke-linejoin:round"
       d="m 6.3499998,5.5562499 c 0,0 -0.5291666,0.529167 -0.5291666,1.058333 0,0.529166 0.5291666,0.5291666 0.5291666,0.5291666 0,0 0.5291665,-6e-7 0.5291665,-0.5291666 0,-0.529166 -0.5291665,-1.058333 -0.5291665,-1.058333 z" /></g></svg>
