<?xml version="1.0" encoding="UTF-8" standalone="no"?>
<!-- Created with Inkscape (http://www.inkscape.org/) -->

<svg
   width="32"
   height="32"
   viewBox="0 0 8.4666665 8.4666666"
   version="1.1"
   id="svg1"
   xml:space="preserve"
   inkscape:version="1.3.2 (091e20e, 2023-11-25, custom)"
   sodipodi:docname="icon_square.svg"
   xmlns:inkscape="http://www.inkscape.org/namespaces/inkscape"
   xmlns:sodipodi="http://sodipodi.sourceforge.net/DTD/sodipodi-0.dtd"
   xmlns:xlink="http://www.w3.org/1999/xlink"
   xmlns="http://www.w3.org/2000/svg"
   xmlns:svg="http://www.w3.org/2000/svg"><sodipodi:namedview
     id="namedview1"
     pagecolor="#505050"
     bordercolor="#eeeeee"
     borderopacity="1"
     inkscape:showpageshadow="0"
     inkscape:pageopacity="0"
     inkscape:pagecheckerboard="0"
     inkscape:deskcolor="#d1d1d1"
     inkscape:document-units="mm"
     showgrid="true"
     inkscape:zoom="16.000001"
     inkscape:cx="1.7812499"
     inkscape:cy="17.906249"
     inkscape:window-width="1920"
     inkscape:window-height="1009"
     inkscape:window-x="-8"
     inkscape:window-y="-8"
     inkscape:window-maximized="1"
     inkscape:current-layer="layer1"><inkscape:grid
       id="grid1"
       units="px"
       originx="0"
       originy="0"
       spacingx="0.26458333"
       spacingy="0.26458333"
       empcolor="#0099e5"
       empopacity="0.30196078"
       color="#0099e5"
       opacity="0.14901961"
       empspacing="4"
       dotted="false"
       gridanglex="30"
       gridanglez="30"
       visible="true" /></sodipodi:namedview><defs
     id="defs1"><linearGradient
       id="linearGradient1"
       inkscape:collect="always"><stop
         style="stop-color:#03001d;stop-opacity:1;"
         offset="0"
         id="stop1" /><stop
         style="stop-color:#002355;stop-opacity:1;"
         offset="1"
         id="stop2" /></linearGradient><linearGradient
       id="linearGradient2-7"
       inkscape:collect="always"><stop
         style="stop-color:#e7e7e7;stop-opacity:1;"
         offset="0"
         id="stop2-7" /><stop
         style="stop-color:#ffffff;stop-opacity:1;"
         offset="1"
         id="stop3" /></linearGradient><linearGradient
       inkscape:collect="always"
       xlink:href="#linearGradient2-7"
       id="linearGradient3"
       x1="1.0583333"
       y1="5.2916665"
       x2="7.458333"
       y2="1.4052083"
       gradientUnits="userSpaceOnUse"
       gradientTransform="matrix(1.330617,0,0,1.330617,-0.07669548,-0.07238326)" /><filter
       style="color-interpolation-filters:sRGB;"
       inkscape:label="Drop Shadow"
       id="filter2"
       x="-0.028404323"
       y="-0.047014054"
       width="1.0568086"
       height="1.0940281"><feFlood
         result="flood"
         in="SourceGraphic"
         flood-opacity="0.196078"
         flood-color="rgb(0,0,0)"
         id="feFlood1" /><feGaussianBlur
         result="blur"
         in="SourceGraphic"
         stdDeviation="0.100000"
         id="feGaussianBlur1" /><feOffset
         result="offset"
         in="blur"
         dx="0.000000"
         dy="0.000000"
         id="feOffset1" /><feComposite
         result="comp1"
         operator="in"
         in="flood"
         in2="offset"
         id="feComposite1" /><feComposite
         result="comp2"
         operator="over"
         in="SourceGraphic"
         in2="comp1"
         id="feComposite2" /></filter><filter
       style="color-interpolation-filters:sRGB;"
       inkscape:label="Drop Shadow"
       id="filter14"
       x="-0.056808646"
       y="-0.094028108"
       width="1.1136173"
       height="1.1880562"><feFlood
         result="flood"
         in="SourceGraphic"
         flood-opacity="0.301961"
         flood-color="rgb(0,0,0)"
         id="feFlood13" /><feGaussianBlur
         result="blur"
         in="SourceGraphic"
         stdDeviation="0.200000"
         id="feGaussianBlur13" /><feOffset
         result="offset"
         in="blur"
         dx="0.000000"
         dy="0.000000"
         id="feOffset13" /><feComposite
         result="comp1"
         operator="in"
         in="flood"
         in2="offset"
         id="feComposite13" /><feComposite
         result="comp2"
         operator="over"
         in="SourceGraphic"
         in2="comp1"
         id="feComposite14" /></filter><filter
       style="color-interpolation-filters:sRGB;"
       inkscape:label="Drop Shadow"
       id="filter2-0"
       x="-0.028404323"
       y="-0.047014054"
       width="1.0568086"
       height="1.0940281"><feFlood
         result="flood"
         in="SourceGraphic"
         flood-opacity="0.196078"
         flood-color="rgb(0,0,0)"
         id="feFlood1-2" /><feGaussianBlur
         result="blur"
         in="SourceGraphic"
         stdDeviation="0.100000"
         id="feGaussianBlur1-1" /><feOffset
         result="offset"
         in="blur"
         dx="0.000000"
         dy="0.000000"
         id="feOffset1-4" /><feComposite
         result="comp1"
         operator="in"
         in="flood"
         in2="offset"
         id="feComposite1-8" /><feComposite
         result="comp2"
         operator="over"
         in="SourceGraphic"
         in2="comp1"
         id="feComposite2-0" /></filter><linearGradient
       inkscape:collect="always"
       xlink:href="#linearGradient1"
       id="linearGradient6"
       x1="0"
       y1="4.2333331"
       x2="8.4666662"
       y2="4.2333331"
       gradientUnits="userSpaceOnUse"
       gradientTransform="translate(-8.4666662)" /></defs><g
     inkscape:label="Layer 1"
     inkscape:groupmode="layer"
     id="layer1"><rect
       style="fill:url(#linearGradient6);stroke-width:0.264583"
       id="rect1"
       width="8.4666662"
       height="8.4666662"
       x="-8.4666662"
       y="0"
       transform="rotate(-90)" /><path
       id="path1-4"
       style="fill:#dfe2eb;fill-opacity:1;stroke-width:0.125524;stroke-linecap:round;stroke-linejoin:round"
       d="M 5.8208331,1.3229166 A 2.0083829,2.0083829 0 0 0 4.0643887,2.7980046 2.0083829,2.0083829 0 0 0 5.4845299,5.2577614 2.0083829,2.0083829 0 0 0 7.7845582,4.2367085 1.7573351,1.7573351 0 0 1 6.3425457,4.4805386 1.7573351,1.7573351 0 0 1 5.0999222,2.3282515 1.7573351,1.7573351 0 0 1 5.8208331,1.3229166 Z" /><g
       id="g9"
       transform="matrix(1.9999997,0,0,1.9999997,-2.9104158,1.058334)"><path
         style="opacity:0.95;fill:#f9f9f9;stroke-width:0.264583;stroke-linecap:round;stroke-linejoin:round"
         d="M 2.9104166,2.1166665 C 3.175,2.1166665 3.175,1.8520832 3.175,1.8520832 v 0.2645833 z"
         id="path6" /><path
         style="opacity:0.95;fill:#f9f9f9;stroke-width:0.264583;stroke-linecap:round;stroke-linejoin:round"
         d="m 3.4395833,2.1166666 c -0.2645834,0 -0.2645834,-0.2645833 -0.2645834,-0.2645833 v 0.2645833 z"
         id="path7" /><path
         style="opacity:0.95;fill:#f9f9f9;stroke-width:0.264583;stroke-linecap:round;stroke-linejoin:round"
         d="m 3.4395833,2.1166666 c -0.2645834,0 -0.2645834,0.2645833 -0.2645834,0.2645833 V 2.1166666 Z"
         id="path8" /><path
         style="opacity:0.95;fill:#f9f9f9;stroke-width:0.264583;stroke-linecap:round;stroke-linejoin:round"
         d="m 2.9104165,2.1166666 c 0.2645834,0 0.2645834,0.2645833 0.2645834,0.2645833 V 2.1166666 Z"
         id="path9" /></g><g
       id="g5"
       transform="translate(-1.0583334,1.5268564)"><path
         style="opacity:0.95;fill:#f9f9f9;stroke-width:0.264583;stroke-linecap:round;stroke-linejoin:round"
         d="M 2.9104166,2.1166665 C 3.175,2.1166665 3.175,1.8520832 3.175,1.8520832 v 0.2645833 z"
         id="path2" /><path
         style="opacity:0.95;fill:#f9f9f9;stroke-width:0.264583;stroke-linecap:round;stroke-linejoin:round"
         d="m 3.4395833,2.1166666 c -0.2645834,0 -0.2645834,-0.2645833 -0.2645834,-0.2645833 v 0.2645833 z"
         id="path3" /><path
         style="opacity:0.95;fill:#f9f9f9;stroke-width:0.264583;stroke-linecap:round;stroke-linejoin:round"
         d="m 3.4395833,2.1166666 c -0.2645834,0 -0.2645834,0.2645833 -0.2645834,0.2645833 V 2.1166666 Z"
         id="path4" /><path
         style="opacity:0.95;fill:#f9f9f9;stroke-width:0.264583;stroke-linecap:round;stroke-linejoin:round"
         d="m 2.9104165,2.1166666 c 0.2645834,0 0.2645834,0.2645833 0.2645834,0.2645833 V 2.1166666 Z"
         id="path5" /></g><path
       id="path1-6"
       style="fill:url(#linearGradient3);fill-opacity:1;stroke:none;stroke-width:0.133062;stroke-linecap:round;stroke-linejoin:round;stroke-dasharray:none;stroke-opacity:1;opacity:0.95;filter:url(#filter14)"
       d="M 4.3240428,2.5680597 A 1.936325,1.936325 0 0 0 2.387718,4.5043845 1.936325,1.936325 0 0 0 2.432413,4.8956376 C 2.018152,4.9849336 1.3315407,5.2806633 1.3315407,6.26468 c 0,0 1.5e-6,1.4082363 1.4082363,1.4082363 h 5.6329456 c 0,0 1.4082363,-1.5e-6 1.4082363,-1.4082363 0,0 -1.034e-4,-1.1636834 -1.0582401,-1.375231 A 1.4082363,1.4082363 0 0 0 8.7247813,4.8564436 1.4082363,1.4082363 0 0 0 7.3165451,3.4482073 1.4082363,1.4082363 0 0 0 6.1957321,4.0093014 1.936325,1.936325 0 0 0 4.3240428,2.5680597 Z"
       transform="matrix(0.76355639,0,0,0.76355639,-0.12218971,0.64205167)" /><g
       id="g13"
       transform="translate(3.1749995,-0.52916697)"
       style="opacity:0.74530831"><path
         style="opacity:0.95;fill:#f9f9f9;stroke-width:0.264583;stroke-linecap:round;stroke-linejoin:round"
         d="M 2.9104166,2.1166665 C 3.175,2.1166665 3.175,1.8520832 3.175,1.8520832 v 0.2645833 z"
         id="path10" /><path
         style="opacity:0.95;fill:#f9f9f9;stroke-width:0.264583;stroke-linecap:round;stroke-linejoin:round"
         d="m 3.4395833,2.1166666 c -0.2645834,0 -0.2645834,-0.2645833 -0.2645834,-0.2645833 v 0.2645833 z"
         id="path11" /><path
         style="opacity:0.95;fill:#f9f9f9;stroke-width:0.264583;stroke-linecap:round;stroke-linejoin:round"
         d="m 3.4395833,2.1166666 c -0.2645834,0 -0.2645834,0.2645833 -0.2645834,0.2645833 V 2.1166666 Z"
         id="path12" /><path
         style="opacity:0.95;fill:#f9f9f9;stroke-width:0.264583;stroke-linecap:round;stroke-linejoin:round"
         d="m 2.9104165,2.1166666 c 0.2645834,0 0.2645834,0.2645833 0.2645834,0.2645833 V 2.1166666 Z"
         id="path13" /></g><g
       id="g17"
       transform="matrix(0.50000015,0,0,0.50000015,6.2177076,4.2333328)"
       style="opacity:0.74932976"><path
         style="opacity:0.95;fill:#f9f9f9;stroke-width:0.264583;stroke-linecap:round;stroke-linejoin:round"
         d="M 2.9104166,2.1166665 C 3.175,2.1166665 3.175,1.8520832 3.175,1.8520832 v 0.2645833 z"
         id="path14" /><path
         style="opacity:0.95;fill:#f9f9f9;stroke-width:0.264583;stroke-linecap:round;stroke-linejoin:round"
         d="m 3.4395833,2.1166666 c -0.2645834,0 -0.2645834,-0.2645833 -0.2645834,-0.2645833 v 0.2645833 z"
         id="path15" /><path
         style="opacity:0.95;fill:#f9f9f9;stroke-width:0.264583;stroke-linecap:round;stroke-linejoin:round"
         d="m 3.4395833,2.1166666 c -0.2645834,0 -0.2645834,0.2645833 -0.2645834,0.2645833 V 2.1166666 Z"
         id="path16" /><path
         style="opacity:0.95;fill:#f9f9f9;stroke-width:0.264583;stroke-linecap:round;stroke-linejoin:round"
         d="m 2.9104165,2.1166666 c 0.2645834,0 0.2645834,0.2645833 0.2645834,0.2645833 V 2.1166666 Z"
         id="path17" /></g><g
       id="g21"
       transform="translate(1.7197936,5.1593762)"
       style="opacity:0.69034853"><path
         style="opacity:0.95;fill:#f9f9f9;stroke-width:0.264583;stroke-linecap:round;stroke-linejoin:round"
         d="M 2.9104166,2.1166665 C 3.175,2.1166665 3.175,1.8520832 3.175,1.8520832 v 0.2645833 z"
         id="path18" /><path
         style="opacity:0.95;fill:#f9f9f9;stroke-width:0.264583;stroke-linecap:round;stroke-linejoin:round"
         d="m 3.4395833,2.1166666 c -0.2645834,0 -0.2645834,-0.2645833 -0.2645834,-0.2645833 v 0.2645833 z"
         id="path19" /><path
         style="opacity:0.95;fill:#f9f9f9;stroke-width:0.264583;stroke-linecap:round;stroke-linejoin:round"
         d="m 3.4395833,2.1166666 c -0.2645834,0 -0.2645834,0.2645833 -0.2645834,0.2645833 V 2.1166666 Z"
         id="path20" /><path
         style="opacity:0.95;fill:#f9f9f9;stroke-width:0.264583;stroke-linecap:round;stroke-linejoin:round"
         d="m 2.9104165,2.1166666 c 0.2645834,0 0.2645834,0.2645833 0.2645834,0.2645833 V 2.1166666 Z"
         id="path21" /></g><g
       id="g25"
       transform="matrix(1.4375,0,0,1.4375,-2.4473957,3.8364582)"
       style="opacity:0.19436997"><path
         style="opacity:0.95;fill:#f9f9f9;stroke-width:0.264583;stroke-linecap:round;stroke-linejoin:round"
         d="M 2.9104166,2.1166665 C 3.175,2.1166665 3.175,1.8520832 3.175,1.8520832 v 0.2645833 z"
         id="path22" /><path
         style="opacity:0.95;fill:#f9f9f9;stroke-width:0.264583;stroke-linecap:round;stroke-linejoin:round"
         d="m 3.4395833,2.1166666 c -0.2645834,0 -0.2645834,-0.2645833 -0.2645834,-0.2645833 v 0.2645833 z"
         id="path23" /><path
         style="opacity:0.95;fill:#f9f9f9;stroke-width:0.264583;stroke-linecap:round;stroke-linejoin:round"
         d="m 3.4395833,2.1166666 c -0.2645834,0 -0.2645834,0.2645833 -0.2645834,0.2645833 V 2.1166666 Z"
         id="path24" /><path
         style="opacity:0.95;fill:#f9f9f9;stroke-width:0.264583;stroke-linecap:round;stroke-linejoin:round"
         d="m 2.9104165,2.1166666 c 0.2645834,0 0.2645834,0.2645833 0.2645834,0.2645833 V 2.1166666 Z"
         id="path25" /></g><g
       id="g29"
       transform="matrix(0.71874999,0,0,0.71874999,1.1575521,6.2259763)"
       style="opacity:0.79624665"><path
         style="opacity:0.95;fill:#f9f9f9;stroke-width:0.264583;stroke-linecap:round;stroke-linejoin:round"
         d="M 2.9104166,2.1166665 C 3.175,2.1166665 3.175,1.8520832 3.175,1.8520832 v 0.2645833 z"
         id="path26" /><path
         style="opacity:0.95;fill:#f9f9f9;stroke-width:0.264583;stroke-linecap:round;stroke-linejoin:round"
         d="m 3.4395833,2.1166666 c -0.2645834,0 -0.2645834,-0.2645833 -0.2645834,-0.2645833 v 0.2645833 z"
         id="path27" /><path
         style="opacity:0.95;fill:#f9f9f9;stroke-width:0.264583;stroke-linecap:round;stroke-linejoin:round"
         d="m 3.4395833,2.1166666 c -0.2645834,0 -0.2645834,0.2645833 -0.2645834,0.2645833 V 2.1166666 Z"
         id="path28" /><path
         style="opacity:0.95;fill:#f9f9f9;stroke-width:0.264583;stroke-linecap:round;stroke-linejoin:round"
         d="m 2.9104165,2.1166666 c 0.2645834,0 0.2645834,0.2645833 0.2645834,0.2645833 V 2.1166666 Z"
         id="path29" /></g><g
       id="g33"
       transform="matrix(1.2812494,0,0,1.2812494,-1.8562155,-1.1244779)"
       style="opacity:0.424933"><path
         style="opacity:0.95;fill:#f9f9f9;stroke-width:0.264583;stroke-linecap:round;stroke-linejoin:round"
         d="M 2.9104166,2.1166665 C 3.175,2.1166665 3.175,1.8520832 3.175,1.8520832 v 0.2645833 z"
         id="path30" /><path
         style="opacity:0.95;fill:#f9f9f9;stroke-width:0.264583;stroke-linecap:round;stroke-linejoin:round"
         d="m 3.4395833,2.1166666 c -0.2645834,0 -0.2645834,-0.2645833 -0.2645834,-0.2645833 v 0.2645833 z"
         id="path31" /><path
         style="opacity:0.95;fill:#f9f9f9;stroke-width:0.264583;stroke-linecap:round;stroke-linejoin:round"
         d="m 3.4395833,2.1166666 c -0.2645834,0 -0.2645834,0.2645833 -0.2645834,0.2645833 V 2.1166666 Z"
         id="path32" /><path
         style="opacity:0.95;fill:#f9f9f9;stroke-width:0.264583;stroke-linecap:round;stroke-linejoin:round"
         d="m 2.9104165,2.1166666 c 0.2645834,0 0.2645834,0.2645833 0.2645834,0.2645833 V 2.1166666 Z"
         id="path33" /></g><g
       id="g37"
       transform="matrix(0.71875074,0,0,0.71875074,-1.5833683,2.4473942)"><path
         style="opacity:0.95;fill:#f9f9f9;stroke-width:0.264583;stroke-linecap:round;stroke-linejoin:round"
         d="M 2.9104166,2.1166665 C 3.175,2.1166665 3.175,1.8520832 3.175,1.8520832 v 0.2645833 z"
         id="path34" /><path
         style="opacity:0.95;fill:#f9f9f9;stroke-width:0.264583;stroke-linecap:round;stroke-linejoin:round"
         d="m 3.4395833,2.1166666 c -0.2645834,0 -0.2645834,-0.2645833 -0.2645834,-0.2645833 v 0.2645833 z"
         id="path35" /><path
         style="opacity:0.95;fill:#f9f9f9;stroke-width:0.264583;stroke-linecap:round;stroke-linejoin:round"
         d="m 3.4395833,2.1166666 c -0.2645834,0 -0.2645834,0.2645833 -0.2645834,0.2645833 V 2.1166666 Z"
         id="path36" /><path
         style="opacity:0.95;fill:#f9f9f9;stroke-width:0.264583;stroke-linecap:round;stroke-linejoin:round"
         d="m 2.9104165,2.1166666 c 0.2645834,0 0.2645834,0.2645833 0.2645834,0.2645833 V 2.1166666 Z"
         id="path37" /></g><g
       id="g41"
       transform="translate(0.79374997,-0.13229168)"
       style="opacity:0.604558"><path
         style="opacity:0.95;fill:#f9f9f9;stroke-width:0.264583;stroke-linecap:round;stroke-linejoin:round"
         d="M 2.9104166,2.1166665 C 3.175,2.1166665 3.175,1.8520832 3.175,1.8520832 v 0.2645833 z"
         id="path38" /><path
         style="opacity:0.95;fill:#f9f9f9;stroke-width:0.264583;stroke-linecap:round;stroke-linejoin:round"
         d="m 3.4395833,2.1166666 c -0.2645834,0 -0.2645834,-0.2645833 -0.2645834,-0.2645833 v 0.2645833 z"
         id="path39" /><path
         style="opacity:0.95;fill:#f9f9f9;stroke-width:0.264583;stroke-linecap:round;stroke-linejoin:round"
         d="m 3.4395833,2.1166666 c -0.2645834,0 -0.2645834,0.2645833 -0.2645834,0.2645833 V 2.1166666 Z"
         id="path40" /><path
         style="opacity:0.95;fill:#f9f9f9;stroke-width:0.264583;stroke-linecap:round;stroke-linejoin:round"
         d="m 2.9104165,2.1166666 c 0.2645834,0 0.2645834,0.2645833 0.2645834,0.2645833 V 2.1166666 Z"
         id="path41" /></g></g></svg>
